<svg xmlns="http://www.w3.org/2000/svg" version="1.1" xmlns:xlink="http://www.w3.org/1999/xlink" xmlns:svgjs="http://svgjs.dev/svgjs" width="1500" height="1500" viewBox="0 0 1500 1500"><rect width="1500" height="1500" fill="#000000"></rect><g transform="matrix(0.6666666666666666,0,0,0.6666666666666666,250.3887169807781,229.42186234817814)"><svg viewBox="0 0 237 247" data-background-color="#ffffff" preserveAspectRatio="xMidYMid meet" height="1563" width="1500" xmlns="http://www.w3.org/2000/svg" xmlns:xlink="http://www.w3.org/1999/xlink"><g id="tight-bounds" transform="matrix(1,0,0,1,-0.09212592444441725,-0.09999999999999432)"><svg viewBox="0 0 237.1842518488888 247.2" height="247.2" width="237.1842518488888"><g><svg></svg></g><g><svg viewBox="0 0 237.1842518488888 247.2" height="247.2" width="237.1842518488888"><g transform="matrix(1,0,0,1,0,47.215199999999996)"><svg viewBox="0 0 237.1842518488888 152.7696" height="152.7696" width="237.1842518488888"><g><svg viewBox="0 0 244.43135999999998 157.43743863081835" height="152.7696" width="237.1842518488888"><g transform="matrix(1,0,0,1,0,95.26293154548536)"><svg viewBox="0 0 244.43135999999998 62.174507085333005" height="62.174507085333005" width="244.43135999999998"><g id="textblocktransform"><svg viewBox="0 0 244.43135999999998 62.174507085333005" height="62.174507085333005" width="244.43135999999998" id="textblock"><g><svg viewBox="0 0 244.43135999999998 39.55405358255451" height="39.55405358255451" width="244.43135999999998"><g transform="matrix(1,0,0,1,0,0)"><svg width="244.43135999999998" viewBox="0.5 -39 288.88 46.75" height="39.55405358255451" data-palette-color="#7fc37e"><path d="M0.5-31.95L0.5-31.95Q0.5-32.55 1.8-33.38 3.1-34.2 5.48-34.85 7.85-35.5 10.65-35.5 13.45-35.5 14.75-34.7 16.05-33.9 16.15-32.95L16.15-32.95 17.9-14.75 18.6-14.75 20.15-32.5Q20.3-33.9 23.55-34.7 26.8-35.5 29.6-35.5 32.4-35.5 33.75-35.02 35.1-34.55 35.48-34.05 35.85-33.55 35.85-33.13 35.85-32.7 35.13-30.78 34.4-28.85 33.6-26.65L33.6-26.65Q30.95-19.65 24.65-1.55L24.65-1.55Q24.1 0 16.05 0L16.05 0Q13.55 0 12.75-0.35 11.95-0.7 11.65-1.55L11.65-1.55Q8.7-10.05 4.6-20.85 0.5-31.65 0.5-31.95ZM51.85-25.85L51.85-25.85 51.85-1.2Q51.85-0.65 48.97-0.33 46.1 0 43.07 0 40.05 0 39.17-0.28 38.3-0.55 38.3-1.2L38.3-1.2 38.3-24.95Q38.3-26.05 41.12-27.13 43.95-28.2 47.3-28.2L47.3-28.2Q51.85-28.2 51.85-25.85ZM45.05-39L45.05-39Q48.35-39 50.22-38.02 52.1-37.05 52.1-34.5L52.1-34.5Q52.1-30 45.1-30 38.1-30 38.1-34.5 38.1-39 45.05-39ZM65.09 0.45L65.09 0.45Q60.55 0.45 57.95-1.7L57.95-1.7Q56.9-2.6 56.12-4.35 55.35-6.1 55.35-8.45 55.35-10.8 56.47-12.55 57.6-14.3 59.2-15.25 60.8-16.2 62.95-16.8L62.95-16.8Q66.2-17.65 70.09-17.65L70.09-17.65 71.75-17.65Q71.75-19.7 70.34-20.55L70.34-20.55Q69.75-20.9 68.52-20.9 67.3-20.9 65.57-20.25 63.85-19.6 62.7-18.93 61.55-18.25 61.15-18.25L61.15-18.25Q60.25-18.25 58.7-20.63 57.15-23 57.15-24.95L57.15-24.95Q57.15-25.6 59-26.65 60.85-27.7 64.22-28.58 67.59-29.45 70.8-29.45 74-29.45 76.32-28.93 78.65-28.4 80.12-27.65 81.59-26.9 82.62-25.65 83.65-24.4 84.17-23.4 84.7-22.4 84.95-20.8L84.95-20.8Q85.3-18.95 85.3-16.25L85.3-16.25 85.3-1.2Q85.3-0.65 82.62-0.33 79.95 0 77.32 0 74.7 0 73.92-0.15 73.15-0.3 73-0.5 72.84-0.7 72.75-1.2L72.75-1.2 72.34-4.05 71.95-4.05Q70.7 0.45 65.09 0.45ZM71.8-7.85L71.8-7.85 71.8-13.7Q70.5-13.7 69.7-12.6 68.9-11.5 68.9-10.1L68.9-10.1Q68.9-6.8 70.4-6.8L70.4-6.8Q71.05-6.8 71.42-7.13 71.8-7.45 71.8-7.85ZM105.49-3.3L105.49-3.3 105.49-6.2 105.09-6.2Q104.89-5.95 104.39-5.58 103.89-5.2 101.92-4.55 99.94-3.9 97.47-3.9 94.99-3.9 93.29-4.65 91.59-5.4 90.64-6.53 89.69-7.65 89.14-9.55L89.14-9.55Q88.29-12.5 88.29-17.55L88.29-17.55Q88.29-23.35 90.74-26.45L90.74-26.45Q91.69-27.7 93.57-28.58 95.44-29.45 97.59-29.45 99.74-29.45 101.14-28.98 102.54-28.5 103.24-27.85L103.24-27.85Q104.64-26.45 104.84-25.4L104.84-25.4 104.89-24.95 105.29-24.95 105.74-26.9Q106.24-29 113.64-29L113.64-29Q116.94-29 117.64-28L117.64-28Q118.04-27.4 118.14-26.88 118.24-26.35 118.24-25.3L118.24-25.3 118.24-4.35Q118.24 1.55 114.39 4.65 110.54 7.75 103.09 7.75L103.09 7.75Q95.19 7.75 92.34 6.2L92.34 6.2Q91.09 5.5 91.09 4.75L91.09 4.75Q91.09 3.55 92.07 0.7 93.04-2.15 93.89-2.15L93.89-2.15Q94.09-2.15 95.29-1.8L95.29-1.8Q99.09-0.8 101.47-0.8 103.84-0.8 104.67-1.4 105.49-2 105.49-3.3ZM103.49-9.6L103.49-9.6Q104.04-9.6 104.39-10 104.74-10.4 104.74-10.9L104.74-10.9 104.74-21.2Q104.54-22.25 103.64-22.25L103.64-22.25Q101.74-22.25 101.74-16L101.74-16Q101.74-13.1 102.22-11.35 102.69-9.6 103.49-9.6ZM138.44-3.3L138.44-3.3 138.44-6.2 138.04-6.2Q137.84-5.95 137.34-5.58 136.84-5.2 134.87-4.55 132.89-3.9 130.42-3.9 127.94-3.9 126.24-4.65 124.54-5.4 123.59-6.53 122.64-7.65 122.09-9.55L122.09-9.55Q121.24-12.5 121.24-17.55L121.24-17.55Q121.24-23.35 123.69-26.45L123.69-26.45Q124.64-27.7 126.52-28.58 128.39-29.45 130.54-29.45 132.69-29.45 134.09-28.98 135.49-28.5 136.19-27.85L136.19-27.85Q137.59-26.45 137.79-25.4L137.79-25.4 137.84-24.95 138.24-24.95 138.69-26.9Q139.19-29 146.59-29L146.59-29Q149.89-29 150.59-28L150.59-28Q150.99-27.4 151.09-26.88 151.19-26.35 151.19-25.3L151.19-25.3 151.19-4.35Q151.19 1.55 147.34 4.65 143.49 7.75 136.04 7.75L136.04 7.75Q128.14 7.75 125.29 6.2L125.29 6.2Q124.04 5.5 124.04 4.75L124.04 4.75Q124.04 3.55 125.02 0.7 125.99-2.15 126.84-2.15L126.84-2.15Q127.04-2.15 128.24-1.8L128.24-1.8Q132.04-0.8 134.42-0.8 136.79-0.8 137.62-1.4 138.44-2 138.44-3.3ZM136.44-9.6L136.44-9.6Q136.99-9.6 137.34-10 137.69-10.4 137.69-10.9L137.69-10.9 137.69-21.2Q137.49-22.25 136.59-22.25L136.59-22.25Q134.69-22.25 134.69-16L134.69-16Q134.69-13.1 135.17-11.35 135.64-9.6 136.44-9.6ZM168.44-25.85L168.44-25.85 168.44-1.2Q168.44-0.65 165.56-0.33 162.69 0 159.66 0 156.64 0 155.76-0.28 154.89-0.55 154.89-1.2L154.89-1.2 154.89-24.95Q154.89-26.05 157.71-27.13 160.54-28.2 163.89-28.2L163.89-28.2Q168.44-28.2 168.44-25.85ZM161.64-39L161.64-39Q164.94-39 166.81-38.02 168.69-37.05 168.69-34.5L168.69-34.5Q168.69-30 161.69-30 154.69-30 154.69-34.5 154.69-39 161.64-39ZM186.24-2.55Q186.14-1.1 184.71-0.55 183.29 0 179.59 0 175.89 0 173.41-0.68 170.94-1.35 170.94-2.4L170.94-2.4Q170.94-3.6 175.39-17.73 179.84-31.85 180.49-34L180.49-34Q180.74-34.65 184.51-35.08 188.29-35.5 192.61-35.5 196.94-35.5 197.39-34L197.39-34Q206.84-2.6 206.84-2.1 206.84-1.6 206.24-1.1L206.24-1.1Q204.84 0 200.69 0L200.69 0Q191.84 0 191.64-2.1L191.64-2.1 191.29-5.35 186.49-5.35 186.24-2.55ZM187.54-14.85L190.24-14.85 189.49-23.85 188.39-23.85 187.54-14.85ZM254.63-16.5L254.63-16.5 254.63-1.2Q254.63-0.65 251.81-0.33 248.98 0 245.96 0 242.93 0 242.03-0.28 241.13-0.55 241.13-1.2L241.13-1.2 241.13-15.05Q241.13-22.2 239.68-22.2L239.68-22.2Q239.33-22.2 238.98-21.9 238.63-21.6 238.63-20.85L238.63-20.85 238.63-1.2Q238.63-0.65 235.81-0.33 232.98 0 229.93 0 226.88 0 226.01-0.28 225.13-0.55 225.13-1.2L225.13-1.2 225.13-15.05Q225.13-20.6 224.43-21.7L224.43-21.7Q224.08-22.2 223.53-22.2L223.53-22.2Q222.58-22.2 222.58-20.85L222.58-20.85 222.58-1.2Q222.58-0.65 219.73-0.33 216.88 0 213.86 0 210.83 0 209.96-0.28 209.08-0.55 209.08-1.2L209.08-1.2 209.08-25.85Q209.08-26.9 211.96-27.95 214.83-29 218.03-29 221.23-29 221.63-27.15L221.63-27.15 222.08-24.95 222.43-24.95Q223.88-27.8 227.23-29L227.23-29Q228.63-29.45 230.83-29.45L230.83-29.45Q235.23-29.45 237.23-24.95L237.23-24.95Q237.88-26.45 240.48-27.95 243.08-29.45 246.23-29.45L246.23-29.45Q251.18-29.45 252.91-26.38 254.63-23.3 254.63-16.5ZM273.53 0.45L273.53 0.45Q269.78 0.45 267.08-0.2 264.38-0.85 262.18-2.5L262.18-2.5Q257.63-5.8 257.63-14.8L257.63-14.8Q257.63-22.8 262.28-26.25L262.28-26.25Q266.63-29.45 273.53-29.45L273.53-29.45Q276.48-29.45 278.58-29.18 280.68-28.9 282.86-28 285.03-27.1 286.36-25.55 287.68-24 288.53-21.28 289.38-18.55 289.38-14.8L289.38-14.8Q289.38-7.2 285.08-3.38 280.78 0.45 273.53 0.45ZM271.78-9.3Q272.13-7.5 272.51-7.15 272.88-6.8 273.51-6.8 274.13-6.8 274.51-7.15 274.88-7.5 275.21-9.3 275.53-11.1 275.53-13.83 275.53-16.55 275.41-18.03 275.28-19.5 275.11-20.3 274.93-21.1 274.63-21.55L274.63-21.55Q274.18-22.2 273.56-22.2 272.93-22.2 272.53-21.83 272.13-21.45 271.78-19.63 271.43-17.8 271.43-14.45 271.43-11.1 271.78-9.3Z" opacity="1" transform="matrix(1,0,0,1,0,0)" fill="#ffffff" class="wordmark-text-0" data-fill-palette-color="primary" id="text-0"></path></svg></g></svg></g><g transform="matrix(1,0,0,1,46.68638976,48.89181633610965)"><svg viewBox="0 0 151.05858048 13.282690749223354" height="13.282690749223354" width="151.05858048"><g transform="matrix(1,0,0,1,0,0)"><svg width="151.05858048" viewBox="6.03 -38.65 560.0500000000001 49.25" height="13.282690749223354" data-palette-color="#7fc37e"><path d="M6.28-26.33L18.35-26.33 18.35-3.33 25.78-3.33 25.78 0 6.03 0 6.03-3.33 14.15-3.33 14.15-23 6.28-23 6.28-26.33ZM15-38.65L15-38.65Q16.4-38.65 17.24-37.8 18.07-36.95 18.07-35.73L18.07-35.73Q18.07-34.45 17.24-33.59 16.4-32.73 15-32.73L15-32.73Q13.68-32.73 12.83-33.59 11.98-34.45 11.98-35.73L11.98-35.73Q11.98-36.95 12.83-37.8 13.68-38.65 15-38.65ZM39.22 0L35.02 0 35.02-26.33 38.6-26.33 38.92-22.68Q40.52-24.7 42.94-25.79 45.35-26.88 47.62-26.88L47.62-26.88Q51.5-26.88 53.26-24.83 55.02-22.78 55.02-19.13L55.02-19.13 55.02 0 50.82 0 50.82-16.03Q50.82-18.73 50.52-20.39 50.22-22.05 49.27-22.81 48.32-23.58 46.32-23.58L46.32-23.58Q44.77-23.58 43.41-22.9 42.05-22.23 40.98-21.21 39.92-20.2 39.22-19.18L39.22-19.18 39.22 0ZM113.19-23.8L113.19-23.8Q113.19-26.48 112.14-28.04 111.09-29.6 109.27-30.29 107.44-30.98 105.09-30.98L105.09-30.98 100.12-30.98 100.12-16.28 104.92-16.28Q107.34-16.28 109.19-16.94 111.04-17.6 112.12-19.24 113.19-20.88 113.19-23.8ZM117.84-23.85L117.84-23.85Q117.84-19.83 116.13-17.4 114.42-14.98 111.42-13.88 108.42-12.78 104.52-12.78L104.52-12.78 100.12-12.78 100.12 0 95.77 0 95.77-34.43 104.57-34.43Q110.72-34.43 114.28-31.84 117.84-29.25 117.84-23.85ZM125.02-26.33L129.22-26.33 129.22-7.68Q129.22-5.08 130.29-3.93 131.37-2.78 133.64-2.78L133.64-2.78Q135.81-2.78 137.75-4.01 139.69-5.25 140.77-6.95L140.77-6.95 140.77-26.33 144.97-26.33 144.97 0 141.39 0 141.04-3.55Q139.49-1.55 137.22-0.49 134.94 0.58 132.62 0.58L132.62 0.58Q128.79 0.58 126.9-1.46 125.02-3.5 125.02-7.18L125.02-7.18 125.02-26.33ZM176.41-29.13L176.41-29.13 177.71-25.18Q176.04-24.65 174.14-24.53 172.24-24.4 170.01-24.4L170.01-24.4Q172.29-23.35 173.44-21.69 174.59-20.03 174.59-17.78L174.59-17.78Q174.59-15.18 173.41-13.15 172.24-11.13 170.03-9.98 167.81-8.83 164.69-8.83L164.69-8.83Q163.36-8.83 162.48-8.95 161.59-9.08 160.76-9.33L160.76-9.33Q160.16-8.93 159.78-8.22 159.39-7.53 159.39-6.78L159.39-6.78Q159.39-5.83 160.14-5.2 160.89-4.58 162.91-4.58L162.91-4.58 167.66-4.58Q170.31-4.58 172.43-3.63 174.54-2.68 175.75-1.07 176.96 0.53 176.96 2.58L176.96 2.58Q176.96 6.45 173.68 8.53 170.39 10.6 164.39 10.6L164.39 10.6Q160.19 10.6 157.76 9.74 155.34 8.88 154.3 7.11 153.26 5.35 153.26 2.68L153.26 2.68 157.06 2.68Q157.06 4.2 157.66 5.2 158.26 6.2 159.84 6.69 161.41 7.18 164.36 7.18L164.36 7.18Q167.26 7.18 169.1 6.69 170.94 6.2 171.83 5.24 172.71 4.28 172.71 2.85L172.71 2.85Q172.71 0.98 171.01 0.03 169.31-0.93 166.76-0.93L166.76-0.93 162.06-0.93Q158.66-0.93 157.05-2.43 155.44-3.93 155.44-5.88L155.44-5.88Q155.44-7.15 156.18-8.35 156.91-9.55 158.34-10.48L158.34-10.48Q156.06-11.68 154.99-13.45 153.91-15.23 153.91-17.75L153.91-17.75Q153.91-20.43 155.24-22.49 156.56-24.55 158.94-25.73 161.31-26.9 164.41-26.9L164.41-26.9Q167.74-26.93 169.81-27.19 171.89-27.45 173.38-27.95 174.86-28.45 176.41-29.13ZM164.41-23.83L164.41-23.83Q161.24-23.83 159.73-22.11 158.21-20.4 158.21-17.75L158.21-17.75Q158.21-15.08 159.76-13.35 161.31-11.63 164.51-11.63L164.51-11.63Q167.31-11.63 168.78-13.25 170.24-14.88 170.24-17.78L170.24-17.78Q170.24-20.75 168.78-22.29 167.31-23.83 164.41-23.83ZM182.99-36.93L195.26-36.93 195.26-6.5Q195.26-4.55 196.47-3.74 197.69-2.93 199.61-2.93L199.61-2.93Q200.81-2.93 201.89-3.18 202.96-3.43 204.04-3.85L204.04-3.85 205.16-0.78Q204.09-0.25 202.5 0.16 200.91 0.58 198.91 0.58L198.91 0.58Q195.41 0.58 193.24-1.36 191.06-3.3 191.06-6.73L191.06-6.73 191.06-33.6 182.99-33.6 182.99-36.93ZM216.26-26.33L228.33-26.33 228.33-3.33 235.76-3.33 235.76 0 216.01 0 216.01-3.33 224.13-3.33 224.13-23 216.26-23 216.26-26.33ZM224.98-38.65L224.98-38.65Q226.38-38.65 227.22-37.8 228.06-36.95 228.06-35.73L228.06-35.73Q228.06-34.45 227.22-33.59 226.38-32.73 224.98-32.73L224.98-32.73Q223.66-32.73 222.81-33.59 221.96-34.45 221.96-35.73L221.96-35.73Q221.96-36.95 222.81-37.8 223.66-38.65 224.98-38.65ZM263.86-18.38L263.86-5.75Q263.86-4.17 264.38-3.45 264.91-2.73 266-2.38L266-2.38 264.98 0.58Q263.28 0.35 262-0.51 260.73-1.38 260.16-3.13L260.16-3.13Q258.73-1.3 256.61-0.36 254.48 0.58 251.91 0.58L251.91 0.58Q247.96 0.58 245.68-1.65 243.41-3.88 243.41-7.55L243.41-7.55Q243.41-11.63 246.58-13.8 249.76-15.98 255.76-15.98L255.76-15.98 259.63-15.98 259.63-18.18Q259.63-21.03 257.97-22.21 256.31-23.4 253.36-23.4L253.36-23.4Q252.06-23.4 250.31-23.09 248.56-22.78 246.51-22.05L246.51-22.05 245.41-25.23Q247.83-26.13 249.96-26.5 252.08-26.88 254.01-26.88L254.01-26.88Q258.93-26.88 261.39-24.59 263.86-22.3 263.86-18.38L263.86-18.38ZM252.98-2.63L252.98-2.63Q254.93-2.63 256.71-3.61 258.48-4.6 259.63-6.35L259.63-6.35 259.63-13.13 255.83-13.13Q251.48-13.13 249.69-11.63 247.91-10.13 247.91-7.6L247.91-7.6Q247.91-5.15 249.17-3.89 250.43-2.63 252.98-2.63ZM329.1-26.33L324.5 0 318.55 0 315.15-19.33 311.45 0 305.65 0 300.85-26.33 305.15-26.33 308.5-2.6 312.7-22.98 317.68-22.98 321.65-2.6 325-26.33 329.1-26.33ZM336.25-26.33L348.32-26.33 348.32-3.33 355.75-3.33 355.75 0 336 0 336-3.33 344.12-3.33 344.12-23 336.25-23 336.25-26.33ZM344.97-38.65L344.97-38.65Q346.37-38.65 347.21-37.8 348.05-36.95 348.05-35.73L348.05-35.73Q348.05-34.45 347.21-33.59 346.37-32.73 344.97-32.73L344.97-32.73Q343.65-32.73 342.8-33.59 341.95-34.45 341.95-35.73L341.95-35.73Q341.95-36.95 342.8-37.8 343.65-38.65 344.97-38.65ZM384.27-4.17L385.9-1.33Q384.55-0.43 382.62 0.08 380.7 0.58 378.85 0.58L378.85 0.58Q374.6 0.58 372.3-1.65 370-3.88 370-7.38L370-7.38 370-23.08 363.95-23.08 363.95-26.33 370-26.33 370-32.3 374.2-32.8 374.2-26.33 383.3-26.33 382.8-23.08 374.2-23.08 374.2-7.43Q374.2-5.23 375.36-4.08 376.52-2.93 379.22-2.93L379.22-2.93Q380.7-2.93 381.95-3.28 383.2-3.63 384.27-4.17L384.27-4.17ZM394.99-36.88L399.19-37.33 399.19-22.73Q400.74-24.8 403.01-25.84 405.27-26.88 407.59-26.88L407.59-26.88Q411.44-26.88 413.22-24.83 414.99-22.78 414.99-19.13L414.99-19.13 414.99 0 410.79 0 410.79-19.03Q410.79-21.4 409.69-22.49 408.59-23.58 406.24-23.58L406.24-23.58Q404.74-23.58 403.39-22.9 402.04-22.23 400.97-21.23 399.89-20.23 399.19-19.18L399.19-19.18 399.19 0 394.99 0 394.99-36.88ZM476.29 0L456.74 0 456.74-34.43 461.09-34.43 461.09-3.88 476.79-3.88 476.29 0ZM495.01-26.88L495.01-26.88Q498.74-26.88 501.25-25.19 503.76-23.5 505.02-20.43 506.29-17.35 506.29-13.18L506.29-13.18Q506.29-9.15 504.99-6.05 503.69-2.95 501.17-1.19 498.66 0.58 494.96 0.58L494.96 0.58Q491.26 0.58 488.74-1.13 486.21-2.83 484.92-5.91 483.64-9 483.64-13.13L483.64-13.13Q483.64-17.2 484.94-20.3 486.24-23.4 488.77-25.14 491.31-26.88 495.01-26.88ZM495.01-23.45L495.01-23.45Q491.61-23.45 489.87-20.94 488.14-18.43 488.14-13.13L488.14-13.13Q488.14-7.93 489.85-5.4 491.56-2.88 494.96-2.88L494.96-2.88Q498.36-2.88 500.07-5.4 501.79-7.93 501.79-13.18L501.79-13.18Q501.79-18.43 500.09-20.94 498.39-23.45 495.01-23.45ZM532.58-26.33L536.93-26.33 527.36 0 522.48 0 512.98-26.33 517.43-26.33 525.06-3.83 532.58-26.33ZM565.98-11.68L548.28-11.68Q548.4-8.63 549.45-6.69 550.5-4.75 552.23-3.84 553.95-2.93 555.98-2.93L555.98-2.93Q558-2.93 559.64-3.53 561.28-4.13 563-5.3L563-5.3 564.98-2.53Q563.13-1.07 560.77-0.25 558.4 0.58 555.93 0.58L555.93 0.58Q552.1 0.58 549.4-1.15 546.7-2.88 545.29-5.96 543.88-9.05 543.88-13.13L543.88-13.13Q543.88-17.13 545.3-20.23 546.73-23.33 549.3-25.1 551.88-26.88 555.38-26.88L555.38-26.88Q558.7-26.88 561.1-25.31 563.5-23.75 564.79-20.86 566.08-17.98 566.08-13.98L566.08-13.98Q566.08-13.3 566.05-12.71 566.03-12.13 565.98-11.68L565.98-11.68ZM555.43-23.43L555.43-23.43Q552.5-23.43 550.54-21.35 548.58-19.28 548.3-14.93L548.3-14.93 562.03-14.93Q561.95-19.15 560.18-21.29 558.4-23.43 555.43-23.43Z" opacity="1" transform="matrix(1,0,0,1,0,0)" fill="#ffffff" class="slogan-text-1" data-fill-palette-color="secondary" id="text-1"></path></svg></g></svg></g></svg></g></svg></g><g transform="matrix(1,0,0,1,68.11046153160117,0)"><svg viewBox="0 0 108.21043693679765 85.92516879193022" height="85.92516879193022" width="108.21043693679765"><g><svg xmlns="http://www.w3.org/2000/svg" xmlns:xlink="http://www.w3.org/1999/xlink" version="1.1" x="0" y="0" viewBox="2.635999999999997 11.36 84.727 67.278" enable-background="new 0 0 90 90" xml:space="preserve" height="85.92516879193022" width="108.21043693679765" class="icon-icon-0" data-fill-palette-color="accent" id="icon-0"><path d="M65.488 65.37c-0.571 0.471-1.272 0.724-1.988 0.741-0.424 0.009-0.85-0.063-1.255-0.223-0.492-0.195-0.905-0.517-1.24-0.899-3.28 4.264-7.92 7.411-13.282 8.8 2.99-2.082 5.463-5.671 7.121-10.209h5.453c-0.021-0.096-0.063-0.182-0.074-0.279l-0.285-2.165H55.63c0.841-2.991 1.343-6.308 1.438-9.836h1.574l-0.322-2.444h-1.252c-0.045-1.637-0.187-3.225-0.396-4.757-0.779 0.217-1.588 0.431-2.39 0.645 0.174 1.336 0.302 2.7 0.344 4.112h-8.61L45.52 51.3h9.105c-0.104 3.541-0.639 6.884-1.537 9.836H42.795v-5.401l-1.252 0.875c-0.363 0.257-0.772 0.399-1.192 0.486v4.04H30.058c-0.439-1.446-0.79-2.989-1.047-4.6-0.267 0.108-0.542 0.217-0.804 0.329-0.524 0.223-0.992 0.445-1.49 0.668 0.219 1.238 0.477 2.451 0.798 3.603h-7.807v-0.002c-0.703 0.429-1.374 0.857-1.996 1.292-0.491 0.346-0.938 0.686-1.361 1.023 4.805 9.025 14.303 15.189 25.221 15.189 10.239 0 19.208-5.433 24.25-13.549L65.488 65.37zM21.114 63.58h7.188c1.661 4.538 4.13 8.127 7.121 10.209C29.482 72.252 24.412 68.564 21.114 63.58zM40.351 73.266c-3.883-0.645-7.27-4.322-9.421-9.686h9.421V73.266zM42.795 63.58h9.421c-2.149 5.361-5.54 9.041-9.421 9.686V63.58z" fill="#ffffff" data-fill-palette-color="accent"></path><path d="M87.363 24.459c-3.995-2.627-12.348-0.773-21.615 2.803L49.466 11.36l-5.485 0.188L57.07 30.955c-5.385 2.476-10.719 5.232-15.396 7.779l-6.756-5.102-2.806 0.327 6.977 8.789 0.601 11.208 2.317-1.617 1.677-8.297c5.19-1.188 11.015-2.66 16.687-4.372l3.053 23.206 4.232-3.495 1.654-22.695C78.628 33.219 86.111 29.072 87.363 24.459z" fill="#ffffff" data-fill-palette-color="accent"></path><path d="M48.527 24.071l-1.348-1.999c-1.819-0.362-3.688-0.56-5.61-0.56-14.262 0-26.082 10.519-28.192 24.199 1.755-1.324 3.46-2.488 5.021-3.501 0.37-1.097 0.789-2.173 1.308-3.194h3.933c1.418-0.817 2.874-1.633 4.406-2.444h-6.933c3.296-4.984 8.368-8.671 14.31-10.209-1.592 1.11-3.032 2.657-4.287 4.538 0.197-0.063 0.393-0.13 0.604-0.153l2.806-0.327c0.017-0.001 0.037 0 0.052-0.001 1.697-1.917 3.647-3.184 5.752-3.532v6.794l1.615 1.221c0.282-0.151 0.549-0.284 0.829-0.435v-7.58c2.373 0.393 4.56 1.933 6.396 4.285l3.166-1.505L48.527 24.071z" fill="#ffffff" data-fill-palette-color="accent"></path><path d="M35.919 43.951l-4.397-5.538c-2.987 1.531-6.322 3.345-9.807 5.517-3.892 2.446-7.978 5.27-11.725 8.869-1.86 1.813-3.648 3.828-5.098 6.258-0.717 1.217-1.339 2.549-1.767 3.991-0.115 0.353-0.192 0.733-0.28 1.101-0.047 0.183-0.069 0.375-0.104 0.563l-0.102 0.681-0.003 0.832 0.023 1.226c0.107 1.477 0.501 3.049 1.285 4.42 0.766 1.383 1.916 2.446 3.06 3.128 2.327 1.363 4.509 1.586 6.388 1.697 3.773 0.115 6.669-0.5 8.695-0.902 0.631-0.134 1.162-0.256 1.612-0.361-5.88-0.309-9.543-1.719-11.51-2.787-0.562-0.285-1.083-0.605-1.528-0.977-0.205-0.159-0.317-0.263-0.317-0.263l0.038-0.003c-0.121-0.115-0.262-0.223-0.364-0.346-0.886-1.059-0.909-2.021-0.595-3.401 0.054-0.142 0.101-0.271 0.14-0.405l0.239-0.799 0.008-0.023c0.022-0.125-0.022 0.141-0.016 0.106l0.013-0.028 0.022-0.063 0.044-0.121c0.033-0.079 0.051-0.159 0.092-0.242 0.079-0.163 0.133-0.326 0.228-0.491 0.332-0.663 0.786-1.338 1.348-2.008 1.127-1.343 2.652-2.629 4.323-3.804 3.372-2.351 7.309-4.276 11.085-5.885 3.284-1.394 6.455-2.523 9.317-3.473L35.919 43.951z" fill="#ffffff" data-fill-palette-color="accent"></path></svg></g></svg></g><g></g></svg></g></svg></g><path d="M0 41.215L0 1 237.184 1 237.184 41.215 233.723 41.215 233.723 4.461 3.461 4.461 3.461 41.215 0 41.215M0 205.985L0 246.2 237.184 246.2 237.184 205.985 233.723 205.985 233.723 242.739 3.461 242.739 3.461 205.985 0 205.985" fill="#ffffff" stroke="transparent" data-fill-palette-color="tertiary"></path></svg></g><defs></defs></svg><rect width="237.1842518488888" height="247.2" fill="none" stroke="none" visibility="hidden"></rect></g></svg></g></svg>